<svg xmlns="http://www.w3.org/2000/svg" fill="none" viewBox="0 0 394 80"><path fill="#000" d="M262 0h68.5v12.7h-27.2v66.6h-13.6V12.7H262V0ZM149 0v12.7H94v20.4h44.3v12.6H94v21h55v12.6H80.5V0h68.7zm34.3 0h-17.8l63.8 79.4h17.9l-32-39.7 32-39.6h-17.9l-23 28.6-23-28.6zm18.3 56.7-9-11-27.1 33.7h17.8l18.3-22.7z"/><path fill="#000" d="M81 79.3 17 0H0v79.3h13.6V17l50.2 62.3H81Zm252.6-.4c-1 0-1.8-.4-2.5-1s-1.1-1.6-1.1-2.6.3-1.8 1-2.5 1.6-1 2.6-1 1.8.3 2.5 1a3.4 3.4 0 0 1 .6 4.3 3.7 3.7 0 0 1-3 1.8zm23.2-33.5h6.2c.3 0 .4.3.4.8v16.4l7.9-8c.3-.3.6-.7 1-1.1.4-.4.8-.7 1.3-.8.5-.2 1-.3 1.6-.3.5 0 1 .1 1.4.4.4.3.8.7 1.1 1.1.3.5.6 1.1.9 1.7.2.7.3 1.4.3 2.1 0 .6-.1 1.1-.2 1.6-.1.6-.3 1.1-.6 1.7-.3.5-.7 1.1-1.2 1.6-.5.6-1 1.1-1.7 1.7l-1.2 1.2c-.4.4-.7.8-1 1.2-.3.4-.5.9-.6 1.3-.1.5-.2 1-.2 1.5v1.7l-6.2.1v-2.2c0-.8.1-1.6.4-2.4.3-.8.6-1.5 1-2.2l1.5-1.8c.5-.6.9-1 1.4-1.4l1.2-1.2c.4-.4.7-.8.9-1.3.2-.5.4-1 .4-1.5s-.1-.9-.3-1.3c-.2-.4-.6-.5-1.1-.5-.3 0-.7.1-1 .2-.4.1-.7.4-1 .7-.4.3-.7.7-1 1.1l-9.1 9.1v16.7c0 .5-.1.8-.4.8h-6.2c-.3 0-.4-.3-.4-.8V46.2c0-.5.1-.8.4-.8zm-2.3 36.8v.3H348v-.3h6.9z"/></svg>

